# xmcd CD database file generated by Grip 2.9
# 
# Track frame offsets:
#       150
#       18837
#       43540
#       63437
#       86895
#       111955
#       134515
#       156707
#       179775
# 
# Disc length: 2667 seconds
# 
# Revision: 3
# Processed by: cddbd v1.4PL0 Copyright (c) Steve Scherf et al.
# Submitted via: Grip 2.9
# 
DISCID=830a6909
DTITLE=Nashville Connection - Platin Edition - The Country Hits - CD2
DYEAR=1900
DGENRE=
TTITLE0=Party Favourites
TTITLE1=Train Songs Medley
TTITLE2=Let's Sing About Women
TTITLE3=Kris Kristofferson Hits
TTITLE4=All Time Favourites
TTITLE5=Creedence Clearwater Revival Medley
TTITLE6=Romance In Waltz Time
TTITLE7=Kenny Rogers' Great Hits (2)
TTITLE8=Dolly, Tammy, Lynn and Linda
EXTD=
EXTT0=
EXTT1=
EXTT2=
EXTT3=
EXTT4=
EXTT5=
EXTT6=
EXTT7=
EXTT8=
PLAYORDER=
